<?xml version="1.0" encoding="utf-8"?>
<!-- Generator: Adobe Illustrator 24.1.1, SVG Export Plug-In . SVG Version: 6.00 Build 0)  -->
<svg version="1.1" id="Layer_1" xmlns="http://www.w3.org/2000/svg" xmlns:xlink="http://www.w3.org/1999/xlink" x="0px" y="0px"
	 viewBox="0 0 280 140" style="enable-background:new 0 0 280 140;" xml:space="preserve">
<style type="text/css">
	.st0{fill:#DCDADA;}
</style>
<g>
	<path class="st0" d="M61.6,51.4c0.9-4.1,1.8-7.7,4.9-10.8c2.1-2.1,5-3.3,8-3.3c0,0,1.2,0,1.9,0.1L76.1,39c0,0-1.6-0.2-2.6,0
		c-1.3,0.3-2,0.9-2.9,1.7c-1.7,1.7-2.2,3.6-3.2,8l-3.3,14.8h8.3l-0.5,2h-8.3l-5.2,23c-0.9,4.1-1.8,7.7-4.9,10.8
		c-2.1,2.1-5,3.3-8,3.3h-1l0.6-1.7c0.3,0,0.7,0,0.9-0.1c1.7-0.2,2.8-0.8,3.7-2c1.5-2,1.9-3.2,3-7.6l5.8-25.7h-8.1l0.5-2H59
		L61.6,51.4z"/>
	<path class="st0" d="M174,73h-11.8c0.8-3,3.2-7.8,7.6-7.8C174.5,65.2,174.6,69.9,174,73 M170.2,62.8c-6.2,0-11.7,4.2-13,10.7
		c-2.2,11.2,6.1,13.2,9.6,13.2c3,0,5.3-1,7.1-2.4l-1.6-1.8c-1.3,0.8-2.7,1.3-4.4,1.3c-5.8,0-6.6-4.9-6.2-8.3h16.5
		C180,70,178.1,62.8,170.2,62.8"/>
	<path class="st0" d="M102.5,46c0,0-6.9,29.8-7.5,33.3c-0.9,5.5,2,6.3,3.5,6.6c2.8,0.4,4.7-0.1,4.7-0.1l0.3-1.8c0,0-1,0.4-2.3,0.1
		c-1.8-0.3-2-1.3-1.6-4.3c0.6-3.5,7.8-33.8,7.8-33.8L102.5,46L102.5,46z"/>
	<path class="st0" d="M188.2,46c0,0-6.9,29.8-7.5,33.3c-0.9,5.5,2,6.3,3.5,6.6c2.8,0.4,4.7-0.1,4.7-0.1l0.3-1.8c0,0-1,0.4-2.3,0.1
		c-1.8-0.3-2-1.3-1.6-4.3c0.6-3.5,7.8-33.8,7.8-33.8L188.2,46L188.2,46z"/>
	<path class="st0" d="M198.8,46c0,0-6.9,29.8-7.5,33.3c-0.9,5.5,1.9,6.3,3.5,6.6c2.8,0.4,4.7-0.1,4.7-0.1l0.3-1.8c0,0-1,0.4-2.3,0.1
		c-1.8-0.3-2-1.3-1.6-4.3c0.6-3.5,7.8-33.8,7.8-33.8L198.8,46L198.8,46z"/>
	<path class="st0" d="M85.9,76.2c-0.6,1.8-2.8,8.3-8,8.3c-6.2,0-3.2-9.4-2.7-11.2c0.5-1.8,2.8-8.4,7.8-8.4
		C89.1,65,86.5,74.4,85.9,76.2 M88.7,63.4l-0.6,2.3H88c-1.2-2.3-3.5-3-5.8-3c-7,0-11.1,5.8-12.3,11.4c-1.7,8,0.7,12.6,7.4,12.6
		c2.9,0,5.1-0.7,7.9-3.3l1.2,2.6h2.3l4.9-22.5L88.7,63.4L88.7,63.4z"/>
	<path class="st0" d="M123.1,76.2c-0.6,1.8-2.8,8.3-8,8.3c-6.2,0-3.2-9.4-2.7-11.2c0.5-1.8,2.8-8.5,7.7-8.5
		C126.2,65,123.6,74.4,123.1,76.2 M125.8,63.4l-0.6,2.3h-0.1c-1.2-2.3-3.5-3-5.8-3c-7,0-11.1,5.8-12.3,11.4
		c-1.7,8,0.7,12.6,7.4,12.6c2.9,0,5.1-0.7,7.9-3.3l1.2,2.6h2.3l4.9-22.5L125.8,63.4L125.8,63.4z"/>
	<path class="st0" d="M218.9,76.2c-0.6,1.8-2.8,8.3-8,8.3c-6.2,0-3.2-9.4-2.7-11.2c0.5-1.8,2.7-8.5,7.7-8.5
		C222.1,65,219.5,74.4,218.9,76.2 M221.7,63.4l-0.6,2.3H221c-1.3-2.3-3.5-3-5.8-3c-7,0-11,5.8-12.3,11.4c-1.7,8,0.7,12.6,7.4,12.6
		c2.9,0,5.1-0.7,7.9-3.3l1.2,2.6h2.3l4.9-22.5L221.7,63.4L221.7,63.4z"/>
	<path class="st0" d="M148.7,76.5c-0.5,1.8-2.7,8.3-7.4,8.3c-5.6,0-3.7-9.4-3.2-11.2c0.7-2.9,2.4-8.3,7-8.3
		C151.4,65.3,149.2,74.6,148.7,76.5 M147,62.9c-2.8,0-5.6,1.2-7.1,3.3h-0.2l4.6-20.1h-5.1c0,0-7.2,31-9.1,40.1h2.9l2.3-2.6
		c1.7,2.6,3.6,3.3,6.5,3.3c6.6,0,11-4.6,12.7-12.6C155.6,68.7,154,62.9,147,62.9"/>
	<path class="st0" d="M229.4,82.6c0-1.7,1.4-3.1,3.1-3.1c1.7,0,3.1,1.4,3.1,3.1s-1.4,3.1-3.1,3.1C230.7,85.7,229.4,84.3,229.4,82.6"
		/>
</g>
</svg>
