<?xml version="1.0" encoding="UTF-8" standalone="no"?>
<!DOCTYPE svg PUBLIC "-//W3C//DTD SVG 1.1//EN" "http://www.w3.org/Graphics/SVG/1.1/DTD/svg11.dtd">
<svg width="100%" height="100%" viewBox="0 0 280 140" version="1.1" xmlns="http://www.w3.org/2000/svg" xmlns:xlink="http://www.w3.org/1999/xlink" xml:space="preserve" xmlns:serif="http://www.serif.com/" style="fill-rule:evenodd;clip-rule:evenodd;stroke-linejoin:round;stroke-miterlimit:2;">
    <path d="M59.9,38L59.9,102L220,102L220,38L59.9,38ZM140,98.8C95.3,98.8 63.1,85.7 63.1,70C63.1,54.3 95.3,41.2 140,41.2C184.7,41.2 216.8,54.3 216.8,70C216.9,85.7 184.7,98.8 140,98.8Z" style="fill:white;"/>
    <path d="M133.1,80.2C133.6,80.9 134.2,81.6 134.8,82.2L117.5,82.2C117.5,81.5 116.8,80.2 116.1,79.1C115.4,78 111.4,72.1 111.4,72.1L111.4,80.2C111.4,80.9 111.4,81.5 111.7,82.2L97.3,82.2C97.6,81.5 97.6,80.9 97.6,80.2L97.6,61C97.6,60.3 97.6,59.7 97.3,59L111.7,59C111.4,59.7 111.4,60.3 111.4,61L111.4,69.4C111.4,69.4 116,63.5 117.1,62.2C117.9,61.2 118.9,59.7 118.9,59L134,59C133,59.7 131.8,60.9 130.9,62C130.1,63 125.4,68.6 125.4,68.6C125.4,68.6 132.2,78.9 133.1,80.2M137.7,61L137.7,80.2C137.7,80.9 137.7,81.5 137.4,82.2L165.3,82.2L165.3,75.7C164.6,76 163.9,76 163.3,76L151.6,76L151.6,73L162.9,73L162.9,68.1L151.6,68.1L151.6,65L163.3,65C164,65 164.7,65 165.3,65.3L165.3,59L137.4,59C137.7,59.7 137.7,60.3 137.7,61M203.8,80.2C204,80.9 204.4,81.6 204.9,82.2L189.8,82.2C189.9,81.5 189.6,80.9 189.3,80.2C189.3,80.2 189.1,79.7 188.8,78.9L188.7,78.6L180,78.6L179.9,79C179.9,79 179.6,79.6 179.4,80.3C179.2,81 178.9,81.6 179,82.3L167.1,82.3C167.6,81.7 167.9,81 168.2,80.3L175.3,61.1C175.6,60.4 175.8,59.8 175.7,59.1L195.8,59.1C195.6,59.8 196,60.4 196.2,61.1C196.8,62.5 203.3,78.9 203.8,80.2M186.8,73.6L184.7,68.2C184.5,67.7 184.4,67.2 184.2,66.7C184.1,67.2 184,67.7 183.8,68.2C183.7,68.4 182.8,70.8 181.8,73.6L186.8,73.6ZM90.5,59L74.8,59C75.1,59.7 75.1,60.3 75.1,61L75.1,80.2C75.1,80.9 75.1,81.5 74.8,82.2L90.5,82.2C90.2,81.5 90.2,80.9 90.2,80.2L90.2,61C90.1,60.3 90.1,59.7 90.5,59M199,60.8C198.9,59.2 200.2,57.8 201.9,57.8L202.1,57.8C203.8,57.8 205.2,59.1 205.2,60.7L205.2,60.8C205.2,62.5 203.9,63.9 202.1,63.9C200.4,63.9 198.9,62.6 198.9,60.9C199,60.9 199,60.9 199,60.8M199.6,60.8C199.6,62.1 200.7,63.2 202.1,63.2C203.5,63.2 204.6,62.1 204.6,60.8C204.6,59.5 203.5,58.4 202.1,58.4C200.8,58.4 199.6,59.4 199.6,60.7L199.6,60.8ZM201.5,62.6L200.9,62.6L200.9,59L202.3,59C203,59 203.5,59.5 203.5,60.2C203.5,60.6 203.2,61.1 202.8,61.3L203.6,62.7L203,62.7L202.3,61.4L201.5,61.4L201.5,62.6ZM201.5,60.8L202.3,60.8C202.7,60.8 203,60.6 203,60.2C203,59.8 202.7,59.5 202.4,59.5L201.5,59.5L201.5,60.8Z" style="fill:white;fill-rule:nonzero;"/>
</svg>
