<?xml version="1.0" encoding="utf-8"?>
<!-- Generator: Adobe Illustrator 24.1.1, SVG Export Plug-In . SVG Version: 6.00 Build 0)  -->
<svg version="1.1" id="Layer_1" xmlns="http://www.w3.org/2000/svg" xmlns:xlink="http://www.w3.org/1999/xlink" x="0px" y="0px"
	 viewBox="0 0 280 140" style="enable-background:new 0 0 280 140;" xml:space="preserve">
<style type="text/css">
	.st0{fill:#DCDADA;}
</style>
<g>
	<path class="st0" d="M83.2,72.6c0.6-1.2,1.3-2.3,1.9-3.5c0.3-0.6,0.3-0.6,0.9-0.3c3,1.5,6.2,2.4,9.6,2.7c0.6,0.1,1.2,0.1,1.8,0.1
		c0.3,0,0.5-0.1,0.5-0.5c0-0.1,0-0.3,0-0.4c0-16.7,0-33.4,0-50c0-0.1,0-0.3,0-0.4c0-0.4,0.1-0.5,0.5-0.5c6.4,0,12.8,0,19.3,0
		c0.4,0,0.5,0.2,0.5,0.5c0,1.2,0,2.3,0,3.5c0,0.1-0.1,0.3,0.1,0.4s0.3-0.1,0.4-0.2c2.4-2.3,5.3-4,8.5-4.8c6.6-1.6,12.5-0.3,17.8,4
		c0.8,0.6,1.5,1.3,2.1,2.1c0.2,0.2,0.3,0.3,0.5,0c2.6-3,5.8-5.1,9.7-6c6.6-1.7,12.5-0.4,17.8,3.9c4,3.3,6.3,7.5,7.1,12.6
		c0.1,0.8,0.2,1.7,0.2,2.5c0,10.9,0,21.8,0,32.7c0,0.7,0,0.7,0.7,0.7c3.9-0.1,7.6-1.1,11.1-2.9c0.4-0.2,0.6-0.1,0.8,0.2
		c0.6,1.1,1.2,2.2,1.8,3.3c0.2,0.4,0.1,0.5-0.2,0.7c-3.5,1.8-7.2,2.9-11.1,3.4c-4,0.5-8,0-11.9-1.2c-2.3-0.7-4.5-1.6-6.8-2.1
		c-4.5-1-9-0.8-13.3,0.7c-2.1,0.7-4.2,1.5-6.3,2c-5.7,1.3-11.4,1-16.9-0.9c-2-0.7-4-1.5-6.1-1.9c-4.1-0.9-8.1-0.6-12.1,0.5
		c-2.5,0.7-4.9,1.6-7.3,2.2c-2.7,0.7-5.5,0.9-8.2,0.8c-4.4-0.2-8.6-1.3-12.6-3.3c-0.2-0.1-0.3-0.2-0.5-0.3v-0.3H83.2z M149.7,55.2
		L149.7,55.2V69c0,0.9,0,0.9,0.9,0.6c3-1,6-1.8,9.2-1.7c0.5,0,0.6-0.2,0.6-0.6c0-8.6,0-17.3,0-25.9c0-0.6-0.1-1.2-0.3-1.8
		c-0.9-2.9-4-4.5-6.8-3.5c-2.1,0.8-3.5,2.9-3.5,5.1C149.7,45.9,149.7,50.6,149.7,55.2 M130.3,55.2c0-4.6,0-9.1,0-13.7
		c0-0.4,0-0.8-0.1-1.2c-0.5-3.3-3.9-5.4-7-4.2c-2.1,0.8-3.5,2.9-3.5,5.3c0,5.3,0,10.6,0,15.9c0,3.4,0,6.7,0,10.1
		c0,0.4,0.1,0.6,0.5,0.5c0.8,0,1.7,0,2.5,0.1c2.4,0.3,4.8,0.9,7.1,1.7c0.5,0.2,0.5,0.2,0.5-0.4C130.3,64.7,130.3,60,130.3,55.2"/>
	<path class="st0" d="M116.6,121.5c-1.2-0.2-2.4-0.3-3.5-0.6c-3.5-0.9-6.7-2.3-9.5-4.6c-2.5-2.1-4.4-4.6-5.1-7.8
		c-0.1-0.6-0.2-1.3-0.2-1.9c0-0.3,0.1-0.5,0.5-0.5c1.1,0,2.2,0,3.3,0c3.5-0.1,7.1,0,10.6-0.1c0.4,0,0.6,0.1,0.8,0.6
		c0.3,1.5,1.3,2.5,2.7,3.1c1.7,0.7,3.4,0.7,5.1,0c0.4-0.1,0.7-0.3,1-0.6c1.2-0.9,1.1-2.7-0.3-3.5c-0.9-0.4-1.8-0.7-2.7-1
		c-2.5-0.7-4.9-1.2-7.4-2c-2.9-0.9-5.7-2-8.2-3.9c-2.6-2-4-4.7-4-8c0-5,2.4-8.6,6.5-11.2c2.8-1.7,5.9-2.6,9.2-3
		c4.3-0.5,8.4-0.1,12.5,1.3c2.5,0.9,4.9,2.2,6.7,4.2c2,2.2,3.1,4.7,3.2,7.7c0,0.4-0.1,0.6-0.6,0.6c-4.5,0-9,0-13.5,0
		c-0.3,0-0.5,0-0.6-0.4c-0.3-1.9-1.5-2.9-3.2-3.4c-1.3-0.4-2.7-0.3-4,0.2c-0.8,0.4-1.4,1-1.4,1.9c0,1.1,0.4,1.8,1.5,2.1
		c1.4,0.4,2.8,0.7,4.2,1c2.8,0.6,5.7,1.1,8.4,2c3.2,1.1,6,2.7,8.1,5.4c1.9,2.4,2.5,5.2,2.2,8.3c-0.5,4.9-3.2,8.4-7.4,10.8
		c-3,1.7-6.3,2.6-9.8,3c-0.4,0-0.8,0.1-1.3,0.1h-3.8V121.5z"/>
	<path class="st0" d="M160.5,121.5c-1.1-0.1-2.1-0.2-3.2-0.5c-7-1.6-11.7-5.9-14.4-12.4c-1-2.4-1.5-4.9-1.7-7.5
		c-0.3-4,0.1-8,1.7-11.7c2.9-6.8,7.8-11.2,15.2-12.6c4.8-0.9,9.5-0.5,14.1,1.2c4.8,1.7,8.1,5.1,10.1,9.8c0.9,2.2,1.4,4.4,1.7,6.8
		c0.1,0.5,0,0.5-0.5,0.5c-4.6,0-9.2,0-13.8,0c-0.2,0-0.5,0-0.7,0c-0.4,0-0.6-0.1-0.6-0.5c-0.3-1.2-0.7-2.4-1.5-3.4
		c-1.6-2.1-4.5-2.6-6.5-1.1c-1,0.7-1.7,1.7-2.1,2.8c-1.7,4.4-1.7,8.8,0.4,13.1c0.6,1.3,1.7,2.3,3.2,2.7c1.9,0.5,3.9-0.3,5.2-2
		c0.7-1,1.1-2,1.4-3.2c0.1-0.4,0.3-0.5,0.7-0.5c4.8,0,9.6,0,14.4,0c0.6,0,0.6,0.1,0.5,0.5c-0.4,2.7-1,5.3-2.2,7.7
		c-2,4.3-5.3,7.3-9.8,8.8c-2.3,0.8-4.6,1.3-7,1.4c-0.1,0-0.2,0-0.3,0.1C164.8,121.5,160.5,121.5,160.5,121.5z"/>
</g>
</svg>
