<?xml version="1.0" encoding="UTF-8" standalone="no"?>
<!DOCTYPE svg PUBLIC "-//W3C//DTD SVG 1.1//EN" "http://www.w3.org/Graphics/SVG/1.1/DTD/svg11.dtd">
<svg width="100%" height="100%" viewBox="0 0 280 140" version="1.1" xmlns="http://www.w3.org/2000/svg" xmlns:xlink="http://www.w3.org/1999/xlink" xml:space="preserve" xmlns:serif="http://www.serif.com/" style="fill-rule:evenodd;clip-rule:evenodd;stroke-linejoin:round;stroke-miterlimit:2;">
    <g>
        <path d="M134.7,71.5C134.7,80.6 127.3,88.1 118.1,88.1C109.1,88.1 101.6,80.9 101.6,71.5C101.6,62.1 109.2,54.9 118.2,55C127.3,54.9 134.7,62.3 134.7,71.5M118.1,63.2C113.8,63.1 109.9,66.7 109.9,71.4C109.9,76 113.5,79.6 118.1,79.6C122.6,79.6 126.3,75.9 126.3,71.4C126.3,66.6 122.3,63.1 118.1,63.2" style="fill:white;fill-rule:nonzero;"/>
        <path d="M211.7,65.6L211.7,56C211.7,55.3 211.7,55.3 212.4,55.3L220.9,55.3C221.5,55.3 221.5,55.3 221.5,55.9L221.5,74.3C221.5,77.2 220.8,80 219,82.4C217.1,85 214.5,86.5 211.3,87C208.5,87.5 205.8,87.4 203,87.1C201.5,87 200,86.8 198.7,86.2C195.2,84.7 192.9,82.1 191.9,78.4C191.5,76.8 191.3,75.1 191.3,73.4L191.3,55.9C191.3,55.2 191.3,55.2 192,55.2L200.4,55.2C201,55.2 201,55.2 201,55.8L201,74C201,74.7 201,75.3 201.2,75.9C201.6,77.8 202.7,79.1 204.6,79.6C205.8,79.9 206.9,79.9 208.1,79.6C210.2,79 211.6,77.3 211.6,75C211.8,72 211.7,68.8 211.7,65.6Z" style="fill:white;fill-rule:nonzero;"/>
        <path d="M238.3,54.8C240.3,54.8 242.2,55 244.1,55.5C247.9,56.5 250.2,59 251,62.8C251,63 251.1,63.2 251.1,63.4C251.3,64.3 251.3,64.3 250.4,64.3C248.1,64.4 245.7,64.6 243.3,64.7C243,64.7 242.7,64.7 242.5,64.8C242.1,64.8 242,64.7 241.9,64.3C241.7,63.4 241.4,62.6 240.8,62C240.4,61.6 239.9,61.2 239.3,61C238.1,60.6 236.9,60.6 235.7,60.9C235.2,61 234.8,61.3 234.5,61.6C233.5,62.7 233.8,64.1 235.2,64.8C236.3,65.3 237.4,65.5 238.6,65.7C241.1,66.3 243.7,66.9 246.1,67.9C248,68.7 249.8,69.8 250.9,71.7C252.6,74.5 252.7,77.4 251.5,80.3C250.1,83.8 247.4,85.8 243.8,86.6C239.7,87.6 235.5,87.5 231.4,86.4C227.3,85.3 225.1,82.4 224.1,78.4C223.9,77.8 223.9,77.2 223.8,76.6C223.8,76.3 223.9,76.2 224.1,76.2C225.2,76.1 226.3,76 227.4,76C229.1,75.9 230.8,75.8 232.5,75.7C232.8,75.7 233,75.8 233,76.1C233.1,76.7 233.2,77.3 233.5,77.9C234.3,79.7 235.7,80.7 237.6,80.9C238.4,81 239.1,80.9 239.9,80.8C240.6,80.7 241.3,80.3 241.8,79.8C243.2,78.4 243,76.4 241.3,75.3C240.4,74.7 239.4,74.4 238.3,74.2C236.4,73.7 234.4,73.3 232.5,72.6C230.7,71.9 228.9,71.1 227.4,69.8C224.1,66.8 224.1,61.8 226.8,58.7C228.5,56.7 230.7,55.7 233.2,55.2C234.9,54.9 236.6,54.8 238.3,54.8" style="fill:white;fill-rule:nonzero;"/>
        <path d="M176.1,55.3L188.6,55.3C189.2,55.3 189.3,55.3 189.3,55.9L189.3,62.5C189.3,63.1 189.3,63.1 188.7,63.1L181.7,63.1C181.1,63.1 181.1,63.1 181.1,63.7L181.1,86C181.1,86.7 181.1,86.7 180.4,86.7L172,86.7C171.4,86.7 171.4,86.7 171.4,86L171.4,63.7C171.4,63 171.4,63 170.7,63L163.8,63C163.2,63 163.2,63 163.2,62.4L163.2,55.7C163.2,55.2 163.2,55.1 163.8,55.1C167.8,55.3 171.9,55.3 176.1,55.3" style="fill:white;fill-rule:nonzero;"/>
        <path d="M147.7,55.3L160.1,55.3C160.8,55.3 160.8,55.3 160.8,56L160.8,62.5C160.8,63.2 160.8,63.2 160.1,63.2L153.3,63.2C152.7,63.2 152.7,63.2 152.7,63.8L152.7,86.1C152.7,86.8 152.7,86.8 152,86.8L143.6,86.8C142.9,86.8 142.9,86.8 142.9,86.1L142.9,63.8C142.9,63.1 142.9,63.1 142.2,63.1L135.4,63.1C134.8,63.1 134.8,63.1 134.8,62.5L134.8,55.9C134.8,55.3 134.8,55.3 135.4,55.3L147.7,55.3" style="fill:white;fill-rule:nonzero;"/>
        <path d="M88.7,55.3L101.1,55.3C101.8,55.3 101.8,55.3 101.8,56L101.8,62.5C101.8,63.2 101.8,63.2 101.1,63.2L94.2,63.2C93.6,63.2 93.5,63.2 93.5,63.9L93.5,86.2C93.5,86.9 93.5,86.9 92.8,86.9L84.4,86.9C83.8,86.9 83.8,86.9 83.8,86.3L83.8,63.9C83.8,63.2 83.8,63.2 83.1,63.2L76.2,63.2C75.6,63.2 75.6,63.2 75.6,62.6L75.6,55.9C75.6,55.3 75.6,55.3 76.2,55.3L88.7,55.3" style="fill:white;fill-rule:nonzero;"/>
        <path d="M47,76C43.7,76 41,73.3 41,70C41,66.7 43.7,64 47,64C50.3,64 53.1,66.6 53,70C52.9,73.7 49.9,76 47,76" style="fill:white;fill-rule:nonzero;"/>
        <path d="M55.6,70C55.6,67 58,64.6 60.9,64.6C64,64.6 66.3,67.1 66.3,70C66.3,73 63.9,75.3 60.9,75.4C57.9,75.4 55.6,73 55.6,70" style="fill:white;fill-rule:nonzero;"/>
        <path d="M27.6,70C27.6,67 30,64.5 33,64.6C35.9,64.6 38.4,67.1 38.4,70C38.4,72.8 36.2,75.4 33,75.4C30,75.4 27.6,73 27.6,70" style="fill:white;fill-rule:nonzero;"/>
        <path d="M46.9,89.3C43.9,89.3 41.6,86.9 41.6,83.9C41.6,81 44,78.5 47,78.5C49.9,78.5 52.4,81 52.4,83.9C52.4,86.9 49.9,89.3 46.9,89.3" style="fill:white;fill-rule:nonzero;"/>
        <path d="M41.6,56.1C41.6,53.1 44,50.7 47,50.7C50,50.7 52.4,53.1 52.4,56.1C52.4,59 49.9,61.5 47,61.5C44,61.5 41.6,59 41.6,56.1" style="fill:white;fill-rule:nonzero;"/>
        <path d="M64.1,57.9C64,60.7 61.6,62.5 59.1,62.4C56.4,62.3 54.3,60 54.5,57.2C54.7,54.6 57.1,52.6 59.7,52.9C62.4,53.1 64.4,55.4 64.1,57.9" style="fill:white;fill-rule:nonzero;"/>
        <path d="M34.5,62.4C31.8,62.3 29.7,60.2 29.8,57.5C29.9,54.9 32.1,52.8 34.8,52.9C37.3,53 39.4,55.2 39.4,57.7C39.3,60.3 37.1,62.5 34.5,62.4" style="fill:white;fill-rule:nonzero;"/>
        <path d="M59.4,77.6C62.1,77.6 64.2,79.7 64.2,82.4C64.2,85 62,87.2 59.4,87.2C56.8,87.2 54.6,85.1 54.6,82.4C54.6,79.7 56.7,77.6 59.4,77.6" style="fill:white;fill-rule:nonzero;"/>
        <path d="M34.6,77.6C37.3,77.6 39.4,79.7 39.4,82.4C39.4,85 37.2,87.1 34.6,87.1C32,87.1 29.8,84.9 29.8,82.3C29.8,79.7 31.9,77.6 34.6,77.6" style="fill:white;fill-rule:nonzero;"/>
    </g>
</svg>
